<?xml version="1.0" encoding="UTF-8" standalone="no"?>
<svg
   xmlns:dc="http://purl.org/dc/elements/1.1/"
   xmlns:cc="http://creativecommons.org/ns#"
   xmlns:rdf="http://www.w3.org/1999/02/22-rdf-syntax-ns#"
   xmlns:svg="http://www.w3.org/2000/svg"
   xmlns="http://www.w3.org/2000/svg"
   xmlns:sodipodi="http://sodipodi.sourceforge.net/DTD/sodipodi-0.dtd"
   xmlns:inkscape="http://www.inkscape.org/namespaces/inkscape"
   width="261.45331mm"
   height="150.65689mm"
   viewBox="0 0 261.45331 150.65689"
   version="1.1"
   id="svg28141"
   inkscape:version="1.0.1 (3bc2e813f5, 2020-09-07)"
   sodipodi:docname="Nepalese Election Symbol Bicycle.svg">
  <defs
     id="defs28135" />
  <sodipodi:namedview
     id="base"
     pagecolor="#ffffff"
     bordercolor="#666666"
     borderopacity="1.0"
     inkscape:pageopacity="0.0"
     inkscape:pageshadow="2"
     inkscape:zoom="0.35"
     inkscape:cx="525.21544"
     inkscape:cy="377.30831"
     inkscape:document-units="mm"
     inkscape:current-layer="layer1"
     inkscape:document-rotation="0"
     showgrid="false"
     fit-margin-top="0.1"
     fit-margin-left="0.1"
     fit-margin-right="0.1"
     fit-margin-bottom="0.1"
     inkscape:window-width="1920"
     inkscape:window-height="1017"
     inkscape:window-x="-8"
     inkscape:window-y="-8"
     inkscape:window-maximized="1" />
  <metadata
     id="metadata28138">
    <rdf:RDF>
      <cc:Work
         rdf:about="">
        <dc:format>image/svg+xml</dc:format>
        <dc:type
           rdf:resource="http://purl.org/dc/dcmitype/StillImage" />
        <dc:title></dc:title>
      </cc:Work>
    </rdf:RDF>
  </metadata>
  <g
     inkscape:label="Layer 1"
     inkscape:groupmode="layer"
     id="layer1"
     transform="translate(33.129919,-48.337177)">
    <path
       style="fill:#000000;stroke-width:0.264583"
       d="m 20.543007,198.81074 c -0.43656,-0.0628 -2.16297,-0.30601 -3.83646,-0.54048 -3.2091,-0.44962 -7.1846801,-1.45769 -10.0541701,-2.54939 -4.53295,-1.72458 -11.36299,-5.74269 -14.28053,-8.40122 -2.7503199,-2.50616 -4.7158299,-4.49043 -5.9078399,-5.96423 -0.69886,-0.86407 -1.41609,-1.74964 -1.59385,-1.96792 -1.84447,-2.265 -4.86785,-7.69178 -6.1541,-11.04623 -0.34872,-0.90943 -0.74227,-1.86193 -0.87457,-2.11666 -0.13229,-0.25473 -0.44777,-1.17752 -0.70107,-2.05065 -0.25329,-0.87312 -0.55608,-1.88516 -0.67285,-2.24896 -0.74713,-2.32759 -1.56507,-8.81304 -1.56583,-12.41532 -0.001,-4.9564 1.61452,-14.01483 3.05435,-17.12571 0.21223,-0.45855 0.38588,-0.90868 0.38588,-1.00027 0,-0.30836 2.93377,-6.35897 3.53671,-7.29411 1.69741,-2.63265 2.75845,-4.15763 3.4746,-4.99388 5.4194899,-6.32834 7.5762499,-8.2116 14.53143986,-12.68875 0.71618,-0.46101 1.40079004,-0.8382 1.52136004,-0.8382 0.29961,0 0.26969,-1.09923 -0.0432,-1.5875 -0.21718,-0.3389 -0.51379004,-0.26325 -2.03020004,0.51775 -0.97672996,0.50304 -2.34585996,1.30671 -3.04252996,1.78594 -0.69666,0.47921 -1.33314,0.87131 -1.41439,0.87131 -0.20314,0 -4.78229,3.76872 -6.0827399,5.0062 -3.13989,2.98786 -5.57307,5.9661 -8.23115,10.07504 -1.34454,2.07843 -4.69927,9.10457 -5.24266,10.98021 -0.25295,0.87313 -0.57523,1.94469 -0.71617,2.38125 -0.79622,2.46622 -1.81103,9.23091 -1.81514,12.09965 -0.002,1.39593 -0.0547,1.52949 -0.66363,1.68233 -0.3638,0.0913 -0.95911,0.0913 -1.32291,0 -0.63894,-0.16037 -0.66146,-0.24061 -0.66146,-2.35702 0,-2.4404 -0.20019,-2.826 -1.46712,-2.826 -1.18404,0 -1.70896,-0.69977 -1.70264,-2.26979 0.007,-1.87351 0.46736,-4.7896 0.85392,-5.41537 0.46997,-0.76079 1.44941,-0.93853 2.32421,-0.42177 0.4041,0.2387 0.85479,0.43401 1.00152,0.43401 0.14673,0 0.68448,-1.22039 1.195,-2.71198 2.07213,-6.05411 3.63666,-9.51017 5.83745,-12.89501 0.61624,-0.94777 1.34067,-2.0804 1.60985,-2.51697 1.51765,-2.46133 7.29867,-8.70206 10.4091599,-11.23688 0.77452,-0.63118 3.26607,-2.37512 5.53678,-3.87543 2.37066,-1.56635 3.96786996,-2.77985 3.75115996,-2.84999 -0.20758,-0.0672 -0.91319996,-0.1979 -1.56803996,-0.29048 -1.63571,-0.231264 -2.85336,-0.884984 -3.76767,-2.022754 -1.57294,-1.95736 -1.15088,-4.32202 0.94094,-5.27173 1.06116,-0.48179 2.10416,-0.50281 25.2212701,-0.50838 22.528865,-0.005 24.183285,0.0251 25.162895,0.46364 0.5767,0.2582 1.34997,0.81988 1.71838,1.24817 0.85915,0.99882 1.15333,0.77309 2.3244,-1.78359 0.48329,-1.05512 0.9772,-1.95809 1.09758,-2.0066 0.12038,-0.0485 0.21887,-0.21928 0.21887,-0.37949 0,-0.16021 0.22691,-0.77536 0.50424,-1.36701 0.27732,-0.59165 1.05123,-2.24625 1.71979,-3.6769 1.76967,-3.78691 1.60395,-5.20613 -0.73352,-6.281651 -1.25779,-0.57874 -1.91557,-0.99099 -2.56482,-1.60742 -0.83855,-0.79615 -2.79367,-1.81022 -4.77452,-2.47641 -1.07601,-0.36187 -2.1945,-0.76343 -2.48554,-0.89235 -0.29104,-0.12892 -1.35841,-0.57022 -2.37192,-0.98067 -2.45103,-0.99262 -4.3763,-2.79623 -4.37181,-4.09554 0.004,-1.12235 0.56318,-3.27412 1.14166,-4.39222 0.42141,-0.81451 1.98889,-1.63138 2.51111,-1.30863 0.48873,0.30205 11.78594,0.0934 13.45376,-0.24854 0.77376,-0.15862 16.54723,-1.17621 18.2122,-1.17492 3.0834,0.002 5.06816,1.43029 5.65922,4.07145 0.46602,2.0824 0.23813,2.37273 -2.15443,2.7447 -2.84042,0.44159 -6.52731,1.74369 -9.88314,3.49044 -3.81531,1.98592 -7.4355,4.3786 -7.65067,5.05654 -0.24056,0.75793 0.52506,1.79968 1.68033,2.28637 0.85741,0.36121 5.68309,0.42528 41.05812,0.54515 36.130018,0.122431 40.120378,0.095 40.429638,-0.2776 0.28756,-0.34648 0.16682,-0.87751 -0.74555,-3.27923 -1.2304,-3.2389 -2.23215,-6.20192 -2.65098,-7.84119 -0.47595,-1.86284 -1.36986,-3.98675 -1.95351,-4.6415 -1.33598,-1.49873 -4.40496,-2.30883 -5.87225,-1.55007 -0.43066,0.22271 -1.31515,0.9271 -1.96553,1.56532 -1.33976,1.31471 -3.53207,3.11936 -3.78944,3.11936 -0.50228,0 0.0193,-0.91062 1.67198,-2.91927 1.75618,-2.1344 2.17901,-2.90157 1.59922,-2.90157 -0.25757,0 -2.75266,2.14938 -3.89277,3.35341 -0.81867,0.86455 -1.36791,0.76847 -2.65759,-0.46489 -1.21667,-1.16355 -1.2185,-1.34405 -0.0267,-2.63569 1.4473,-1.56858 2.07561,-2.43707 2.06385,-2.85281 -0.0158,-0.5581 -2.43141,-2.50647 -3.97685,-3.20759 -1.60131,-0.72648 -3.67336,-0.69435 -5.98779,0.0928 -1.83278,0.62337 -2.96149,1.22143 -3.79451,2.01057 -0.62918,0.59604 -5.25085,4.79674 -6.53318,5.9381 -1.09449,0.97418 -1.920148,1.11704 -1.920148,0.33223 0,-0.57195 5.785658,-6.31803 7.569538,-7.51775 0.88903,-0.5979 2.25825,-1.3608 3.04271,-1.69534 0.78446,-0.33454 1.72395,-0.76104 2.08775,-0.94778 0.64061,-0.32884 0.62731,-0.33959 -0.42195,-0.34117 -2.02971,-0.003 -5.29803,1.39529 -7.11868,3.04571 -0.43656,0.39574 -1.94289,1.83652 -3.34741,3.20172 -1.40452,1.36521 -2.716328,2.48219 -2.915148,2.48219 -0.52895,0 -2.27761,-1.24787 -2.60446,-1.85858 -0.24533,-0.4584 0.0328,-0.85136 2.17621,-3.07491 2.777718,-2.88157 6.301238,-5.82458 7.973168,-6.65958 2.08468,-1.04114 4.31223,-1.45128 7.05202,-1.29844 3.6963,0.20622 5.69935,1.13967 9.02486,4.20574 1.38203,1.27422 1.94352,1.54286 3.20853,1.53512 0.96534,-0.006 1.4334,-0.238 3.24473,-1.60896 2.31014,-1.7485 6.18933,-3.76122 8.0698,-4.18702 1.70782,-0.38671 6.10484,-0.34179 8.76171,0.0895 3.41076,0.55368 4.99887,1.75376 5.81002,4.39046 0.24899,0.80935 0.65936,1.80944 1.29927,3.16639 0.349,0.74008 -0.25601,2.23613 -1.13612,2.80939 -1.95836,1.27554 -7.24913,3.01454 -10.45794,3.43737 -0.7891,0.10398 -1.47167,0.34257 -1.54784,0.54106 -0.0749,0.19528 0.0454,0.8632 0.26751,1.48428 0.22206,0.62107 0.95368,2.73656 1.62582,4.70109 0.67214,1.96453 1.33179,3.81 1.46588,4.10105 0.1341,0.29104 0.52913,1.3626 0.87786,2.38125 0.34872,1.01864 0.85969,2.32833 1.13549,2.91041 0.4394,0.927361 0.61224,1.058341 1.39658,1.058341 1.29467,0 1.54533,-0.550441 1.10901,-2.435301 -0.5556,-2.40009 -0.62828,-3.41213 -0.29036,-4.04353 0.29949,-0.5596 0.32702,-0.56363 0.65086,-0.0955 0.18598,0.26888 0.66432,1.43805 1.06298,2.59818 1.15429,3.35907 0.63248,5.182841 -1.71727,6.001961 -1.04698,0.36498 -1.02892,1.04114 0.10062,3.76648 0.9041,2.18141 2.4163,6.05654 4.50247,11.53787 1.10077,2.89225 1.19762,3.046714 1.95855,3.123704 0.70903,0.0717 4.35115,-0.946444 6.9374,-1.939384 1.3366,-0.51317 3.18779,-1.05348 6.35,-1.8534 2.35376,-0.59542 3.54784,-0.72463 7.81715,-0.8459 4.56156,-0.12956 5.08289,-0.0993 5.50192,0.31976 0.95564,0.95565 0.21398,1.30147 -3.66178,1.70743 -6.39109,0.66941 -13.1563,2.04433 -15.99072,3.249844 -2.67931,1.13954 -5.54063,2.62302 -5.64533,2.92689 -0.0611,0.17739 0.001,0.64994 0.13887,1.05012 0.25218,0.73399 1.11744,0.99471 1.66666,0.50221 0.78755,-0.70623 9.04839,-3.57944 11.57447,-4.02572 0.90281,-0.1595 2.59396,-0.4565 3.75813,-0.65999 4.48565,-0.784074 12.77095,-0.42907 18.25625,0.78222 4.88456,1.07864 11.68606,4.0256 16.00729,6.93566 2.37854,1.60178 6.54035,5.09293 8.36961,7.02087 5.70096,6.00849 10.22868,14.34419 12.11606,22.3061 0.91686,3.8678 0.92465,3.91858 1.19928,7.81834 0.50861,7.22234 -0.54847,15.19453 -2.78907,21.03437 -0.78211,2.03848 -3.36607,7.44493 -4.21691,8.82309 -5.81118,9.4128 -14.599,16.6631 -24.53212,20.23998 -4.88352,1.75854 -7.00282,2.29149 -11.31351,2.84505 -9.90489,1.27194 -19.97241,-0.45051 -28.7073,-4.91151 -2.50485,-1.27926 -3.88032,-2.03685 -4.10104,-2.25881 -0.0728,-0.0732 -0.66315,-0.48989 -1.31198,-0.92604 -1.68615,-1.13346 -3.93907,-2.95856 -5.89664,-4.77691 -2.22526,-2.06699 -5.49138,-5.7163 -5.49138,-6.13563 0,-0.18233 -0.12125,-0.33151 -0.26945,-0.33151 -0.46169,0 -3.29005,-4.5601 -4.98778,-8.04166 -0.89207,-1.82937 -1.62193,-3.39952 -1.62193,-3.48923 0,-0.0897 -0.16683,-0.53828 -0.37073,-0.99683 -0.78887,-1.77408 -0.9968,-2.50247 -2.01297,-7.05145 -0.71265,-3.19029 -1.01084,-11.6012 -0.54986,-15.50992 0.97329,-8.25269 3.38293,-15.09375 7.52692,-21.36924 3.37696,-5.11394 7.51038,-9.45663 12.6707,-13.31221 1.61094,-1.20364 1.85653,-1.81078 1.03366,-2.55546 -0.45641,-0.41305 -0.56535,-0.407 -1.69877,0.0944 -0.66609,0.29464 -1.2503,0.63771 -1.29825,0.76237 -0.0479,0.12466 -0.98013,0.94572 -2.07154,1.82457 -5.75089,4.63089 -10.28412,10.36334 -13.96085,17.65406 -1.75963,3.48922 -3.60897,9.64451 -4.45164,14.81667 -0.61462,3.77243 -0.6743,4.72305 -0.54818,8.73125 0.0778,2.47385 0.33493,5.50995 0.57131,6.74688 0.23639,1.23692 0.52877,2.78473 0.64975,3.43958 0.25868,1.40029 1.18133,4.38399 2.49113,8.05601 1.03563,2.90339 0.97766,3.32107 -0.46093,3.32107 -0.70607,0 -0.91392,-0.16553 -1.41193,-1.12448 -2.65113,-5.10492 -4.52545,-13.89616 -4.5586,-21.38141 -0.0163,-3.68258 1.05898,-12.53248 1.58771,-13.06734 0.13667,-0.13824 0.24848,-0.48496 0.24848,-0.77049 0,-1.50221 1.93643,-6.88279 3.8696,-10.75211 2.69519,-5.39453 5.56169,-9.37812 9.80499,-13.62604 3.02436,-3.02766 4.98293,-4.74174 7.55822,-6.61478 1.64717,-1.198 2.05053,-1.62634 2.05053,-2.17754 0,-0.71751 -1.18637,-2.981634 -1.56232,-2.981634 -0.17782,0 -7.78583,6.579964 -8.22727,7.115534 -0.0728,0.0883 -0.7276,0.68602 -1.45521,1.32832 -0.7276,0.6423 -2.09966,1.89246 -3.04901,2.77813 -0.94936,0.88567 -2.48525,2.26515 -3.41311,3.06551 -0.92785,0.80037 -2.25552,1.99099 -2.95038,2.64583 -0.69485,0.65485 -2.13024,1.96453 -3.18974,2.91042 -1.05951,0.94588 -2.38819,2.13651 -2.95263,2.64583 -0.56444,0.50933 -1.29368,1.16417 -1.62055,1.45521 -4.60372,4.0992 -8.77803,7.89634 -9.28291,8.44416 -0.14552,0.1579 -0.74083,0.69232 -1.32292,1.18761 -0.58208,0.49529 -2.12989,1.8775 -3.43958,3.07159 -1.30969,1.19409 -2.83824,2.56659 -3.39679,3.05 -1.20197,1.04028 -1.20086,1.47229 0.0113,4.35497 1.73792,4.13323 1.69102,7.52045 -0.16118,11.64116 -1.05832,2.35448 -1.10599,2.42185 -3.31089,4.67901 -2.330118,2.38535 -6.592948,4.16469 -10.015238,4.18045 -0.78814,0.004 -1.04607,0.12971 -1.22725,0.5999 -0.37125,0.96344 -0.81761,4.3079 -0.81761,6.12605 0,1.89759 0.28315,2.23868 2.31182,2.78495 1.42016,0.3824 1.77883,1.47691 1.1114,3.3915 -0.22983,0.65929 -0.50169,0.86153 -1.49401,1.1114 -3.69171,0.92958 -6.1302,0.5672 -9.03838,-1.3432 l -1.68521,-1.10703 0.17189,-1.46258 c 0.0945,-0.80442 0.30193,-1.61926 0.46085,-1.81074 0.18019,-0.21712 0.89914,-0.35037 1.91019,-0.35404 2.41755,-0.009 3.02499,-0.68679 3.57766,-3.99337 0.42746,-2.55752 0.38143,-3.5826 -0.17048,-3.7965 -0.42063,-0.16303 -4.31486,-0.72816 -10.46022,-1.51799 -1.50462,-0.19338 -2.41496,-0.20805 -2.58142,-0.0416 -0.14142,0.14143 -0.62325,1.32197 -1.07074,2.62343 -1.08708,3.16166 -3.55696,8.17056 -5.47217,11.09754 -3.74602,5.72498 -7.77919,9.75798 -14.21597,14.21537 -4.96405,3.43755 -12.23635,6.26725 -18.91771,7.36101 -3.12096,0.51091 -10.256355,0.88135 -12.038545,0.62498 z m 4.024525,-4.59309 c 1.42453,-0.13811 4.07834,-0.38118 5.89735,-0.54016 2.93913,-0.25688 3.36939,-0.35824 3.86505,-0.91061 0.47171,-0.52567 0.52629,-0.7995 0.35382,-1.77495 -0.11217,-0.63436 -0.28335,-1.62964 -0.38042,-2.21172 -0.0971,-0.58208 -0.28038,-1.29646 -0.40738,-1.5875 -0.127,-0.29104 -0.47925,-1.5412 -0.78279,-2.77813 -0.30354,-1.23692 -0.74346,-2.9038 -0.97762,-3.70416 -0.23415,-0.80037 -0.63661,-2.34818 -0.89435,-3.43959 -0.48761,-2.06481 -0.89055,-3.58209 -1.98126,-7.46047 -0.35592,-1.26561 -0.64713,-2.48761 -0.64713,-2.71557 0,-0.22796 -0.10615,-0.62121 -0.23589,-0.8739 -0.12975,-0.25269 -0.50094,-1.47146 -0.82488,-2.70839 -1.45591,-5.55922 -1.81535,-6.4747 -2.62529,-6.68651 -0.853875,-0.22329 -1.181535,0.50887 -1.378345,3.07992 -0.10172,1.32878 -0.31039,3.90425 -0.46372,5.72326 -0.15333,1.81901 -0.39628,4.79557 -0.53987,6.61458 -0.1436,1.81901 -0.38774,4.31932 -0.54253,5.55625 -0.49645,3.96698 -1.31226,15.81698 -1.12478,16.33802 0.14279,0.39686 0.36778,0.40171 3.690035,0.0796 z m 155.011578,-0.10643 c 0.21867,-0.56985 -0.80404,-37.73816 -1.08037,-39.26382 -0.161,-0.88891 -0.48269,-1.09778 -0.82863,-0.53804 -0.27187,0.4399 -2.03472,5.78574 -6.69932,20.31564 -0.91098,2.83766 -1.86807,5.81422 -2.12686,6.61458 -0.25878,0.80037 -1.08431,3.36021 -1.8345,5.68855 -0.7502,2.32833 -1.46728,4.42258 -1.59353,4.65388 -0.12624,0.2313 -0.14866,0.55141 -0.0498,0.71136 0.22399,0.36243 3.71489,1.00053 8.89983,1.6268 5.0788,0.61346 5.1501,0.61602 5.31318,0.19105 z m 5.13786,-0.21224 c 0.80036,-0.15099 2.46724,-0.49007 3.70417,-0.75351 1.23692,-0.26345 3.08239,-0.62898 4.10104,-0.8123 2.58194,-0.46466 2.67118,-0.58411 1.98187,-2.65276 -0.31045,-0.93167 -0.84015,-2.28926 -1.17711,-3.01687 -0.33696,-0.7276 -1.05374,-2.51354 -1.59283,-3.96875 -0.53909,-1.45521 -1.14199,-3.00302 -1.33978,-3.43958 -0.19779,-0.43656 -0.61514,-1.44859 -0.92744,-2.24896 -1.61019,-4.12657 -2.06684,-5.28161 -2.61511,-6.61458 -0.32919,-0.80037 -0.78178,-1.93146 -1.00574,-2.51354 -0.22395,-0.58209 -0.56478,-1.42333 -0.75739,-1.86944 -0.93721,-2.17068 -2.48835,-6.06938 -2.48835,-6.25432 0,-0.11461 -0.41653,-1.11014 -0.92562,-2.21229 -0.50909,-1.10215 -0.99853,-2.2944 -1.08765,-2.64945 -0.0891,-0.35505 -0.2812,-0.71921 -0.42687,-0.80923 -0.64098,-0.39615 -0.76544,0.748 -0.60835,5.59264 0.0897,2.7649 0.2733,8.71802 0.40812,13.22917 0.4227,14.14436 0.71595,20.96785 0.91497,21.28987 0.19634,0.3177 0.8593,0.2666 3.84207,-0.2961 z M 19.663497,193.01354 c 0.38335,-2.10495 1.34035,-12.3838 1.79827,-19.31458 0.14421,-2.18281 0.38695,-4.98078 0.5394,-6.21771 0.93092,-7.55274 1.02919,-10.50846 0.35796,-10.76603 -0.23806,-0.0914 -0.62501,-0.0487 -0.8599,0.0949 -0.3704,0.22636 -2.40821,4.07737 -3.78627,7.15523 -0.62918,1.40525 -2.45107,5.34806 -3.70304,8.01384 -2.35895,5.02286 -4.4015701,9.42902 -4.7222701,10.18646 -0.12322,0.29104 -0.89845,1.95791 -1.72273,3.70416 -0.82428,1.74625 -1.51564,3.53162 -1.53634,3.96749 -0.0338,0.71141 0.0706,0.82161 1.02068,1.07718 0.58208,0.15658 1.23693,0.34869 1.45521,0.42692 0.6519,0.23363 2.0778901,0.64925 5.2916601,1.54232 1.67349,0.46505 3.34037,0.9456 3.70417,1.06788 0.3638,0.12229 0.95598,0.19938 1.31596,0.17132 0.54187,-0.0422 0.68766,-0.23315 0.84724,-1.10936 z m 22.178475,-2.4575 c 5.04508,-2.42037 6.83942,-3.23104 7.15159,-3.23104 0.79093,0 0.13782,-1.23323 -3.29285,-6.21771 -3.71852,-5.40269 -3.85874,-5.61721 -3.85874,-5.9033 0,-0.14867 -0.11733,-0.30999 -0.26073,-0.3585 -0.24972,-0.0845 -1.99103,-2.53214 -5.23904,-7.36424 -0.83143,-1.23693 -1.63075,-2.39067 -1.77627,-2.56388 -0.14553,-0.17321 -0.53353,-0.70899 -0.86224,-1.19063 -1.80182,-2.64009 -4.1607,-5.71167 -4.77984,-6.22399 -0.38936,-0.32219 -0.98933,-0.59008 -1.33328,-0.59532 -0.59532,-0.009 -0.61685,0.0509 -0.44834,1.24726 0.0974,0.69122 0.40279,2.03068 0.67876,2.97656 0.27596,0.94589 0.67847,2.43417 0.89445,3.30729 0.21598,0.87313 0.58702,2.30188 0.82453,3.175 0.23751,0.87313 0.79767,2.95672 1.2448,4.63021 0.44713,1.67349 1.09762,4.05474 1.44553,5.29167 1.11987,3.98151 1.35346,4.86769 1.67386,6.35 0.17299,0.80036 0.53055,2.11005 0.79457,2.91041 0.26401,0.80037 0.62747,2.11006 0.80769,2.91042 0.5887,2.61459 0.80362,2.97014 1.70534,2.82132 0.43656,-0.072 2.52016,-0.95923 4.63021,-1.97153 z m 122.868528,0.35014 c 0.23502,-0.35868 0.4273,-0.83672 0.4273,-1.06232 0,-0.22559 1.17519,-3.95049 2.61154,-8.27754 1.43635,-4.32705 3.71432,-11.26064 5.06217,-15.40798 1.34784,-4.14735 2.80797,-8.59029 3.24473,-9.87321 0.55317,-1.62482 0.71006,-2.41663 0.5171,-2.60959 -0.19296,-0.19296 -0.42448,-0.0991 -0.76305,0.30931 -0.26731,0.32247 -0.87022,1.02054 -1.33979,1.55125 -0.46956,0.53072 -0.85652,1.11377 -0.85989,1.29567 -0.003,0.1819 -0.12347,0.33073 -0.26687,0.33073 -0.1434,0 -0.53036,0.40719 -0.8599,0.90486 -0.32954,0.49767 -2.02791,2.71406 -3.77416,4.92531 -1.74625,2.21125 -3.92157,4.98899 -4.83404,6.17275 -0.91246,1.18376 -1.93324,2.44995 -2.2684,2.81375 -0.33515,0.3638 -1.42124,1.73302 -2.41352,3.04271 -0.99229,1.30968 -1.96581,2.47646 -2.16338,2.59283 -0.19756,0.11637 -0.3592,0.33816 -0.3592,0.49285 0,0.1547 -0.30151,0.6548 -0.67001,1.11134 -0.36851,0.45653 -1.44007,1.78117 -2.38125,2.94363 -0.94119,1.16246 -1.71124,2.31956 -1.71124,2.57134 0,0.93079 4.78962,3.91656 9.525,5.93772 2.42994,1.03715 2.73662,1.0591 3.27686,0.23459 z m 33.875,-1.02523 c 0.44871,-0.33807 1.68757,-1.14075 2.75301,-1.78374 1.06544,-0.643 2.21347,-1.34768 2.55119,-1.56596 0.33771,-0.21828 1.25982,-0.78005 2.04913,-1.24838 0.78931,-0.46833 1.65127,-1.09036 1.91546,-1.38229 0.46384,-0.51253 0.46386,-0.556 7.9e-4,-1.26515 -0.42929,-0.65741 -3.02344,-3.64525 -6.04101,-6.9578 -0.59939,-0.65799 -1.55304,-1.72955 -2.11922,-2.38125 -0.5662,-0.65171 -1.83571,-2.07789 -2.82115,-3.1693 -0.98544,-1.0914 -3.42123,-3.82984 -5.41285,-6.08541 -1.99162,-2.25557 -3.93891,-4.45823 -4.32731,-4.89479 -0.3884,-0.43657 -1.59704,-1.80578 -2.68586,-3.04271 -2.02772,-2.30355 -2.48486,-2.72273 -2.8242,-2.5897 -0.26038,0.10207 -0.0999,1.59829 0.20537,1.91501 0.13326,0.13825 0.24229,0.41888 0.24229,0.62363 0,0.20476 0.34611,1.10368 0.76913,1.99761 0.42303,0.89393 0.92324,2.1611 1.1116,2.81595 0.18835,0.65484 0.4139,1.25015 0.50122,1.32292 0.0873,0.0728 0.37609,0.7276 0.64172,1.4552 0.26564,0.72761 0.62998,1.68011 0.80965,2.11667 0.17967,0.43656 0.74362,1.80578 1.25321,3.04271 0.5096,1.23693 1.31044,3.20146 1.77964,4.36562 0.4692,1.16417 1.02126,2.4327 1.22679,2.81895 0.20554,0.38626 0.3737,0.87398 0.3737,1.08383 0,0.20985 0.16718,0.72726 0.3715,1.1498 0.71047,1.46924 1.41866,3.15354 1.60239,3.81096 0.10167,0.36381 0.34122,1.01865 0.53233,1.45521 0.19111,0.43657 0.84527,2.03838 1.45369,3.5596 1.55343,3.88401 1.49779,3.8023 2.45854,3.61015 0.44737,-0.0895 1.18053,-0.43928 1.62925,-0.77734 z M 5.5058469,187.87713 c 0.46082,-0.92027 1.14959,-2.3437 1.53062,-3.16319 0.38102,-0.81949 0.80169,-1.66857 0.93482,-1.88686 0.58062,-0.95198 3.4435901,-7.2067 3.4435901,-7.52319 0,-0.19223 0.1786,-0.49773 0.39688,-0.67889 0.21828,-0.18116 0.39687,-0.44149 0.39687,-0.57852 0,-0.13702 0.31218,-0.92612 0.69373,-1.75354 0.38156,-0.82742 0.90128,-1.98065 1.15496,-2.56273 0.25367,-0.58208 1.06236,-2.30849 1.79709,-3.83646 0.73473,-1.52797 1.82697,-3.84969 2.42721,-5.15937 0.60023,-1.30969 1.20353,-2.58441 1.34066,-2.83272 0.13713,-0.2483 0.32631,-0.93291 0.4204,-1.52135 0.1595,-0.99746 0.12849,-1.07016 -0.45804,-1.07381 -0.58927,-0.004 -6.49577,5.80976 -23.5057701,23.13537 -3.34305,3.40507 -3.33422,3.37837 -1.53664,4.6498 0.51435,0.3638 1.69338,1.19215 2.62006,1.84077 0.92669,0.64863 2.33972996,1.63791 3.14008996,2.19841 2.77391004,1.94259 3.81898004,2.58128 4.09164004,2.50057 0.1507,-0.0446 0.65102,-0.83403 1.11183,-1.75429 z M 54.007612,183.4224 c 1.54798,-1.56435 3.75093,-3.82659 4.89544,-5.02721 l 2.08092,-2.18294 -0.63348,-0.67431 c -0.34842,-0.37087 -1.23232,-1.08722 -1.96423,-1.59188 -3.40349,-2.34673 -6.65877,-4.64155 -7.01929,-4.94827 -0.21828,-0.18571 -1.28985,-0.93025 -2.38125,-1.65454 -1.09141,-0.72429 -2.14991,-1.474 -2.35223,-1.66601 -0.20232,-0.19201 -0.67857,-0.54453 -1.05833,-0.78339 -0.37977,-0.23886 -1.34764,-0.91526 -2.15083,-1.50313 -0.80319,-0.58786 -1.65718,-1.18791 -1.89776,-1.33343 -0.24058,-0.14552 -1.64605,-1.08055 -3.12327,-2.07785 -2.16318,-1.46042 -3.08106,-1.90999 -4.71681,-2.31028 -1.91548,-0.46874 -2.95702,-0.46851 -2.95702,5.3e-4 0,0.11388 0.38165,0.73094 0.84811,1.37123 1.67639,2.30114 6.31003,9.04491 6.71944,9.77944 0.16032,0.28765 0.5791,0.84814 0.9306,1.24553 0.3515,0.3974 1.68531,2.27036 2.96402,4.16213 1.2787,1.89177 3.18165,4.65705 4.22877,6.14506 1.04712,1.48801 2.25538,3.21441 2.68502,3.83646 1.10176,1.59512 1.51016,2.05702 1.81873,2.05702 0.14791,0 1.53546,-1.27992 3.08345,-2.84427 z m 97.373948,-0.13229 c 0.42872,-0.47295 2.09203,-2.52678 3.69625,-4.56407 1.60422,-2.03729 3.55329,-4.47807 4.33127,-5.42396 0.77798,-0.94588 1.85621,-2.30333 2.39605,-3.01656 0.53985,-0.71322 1.42125,-1.84307 1.95867,-2.51078 0.53742,-0.66771 1.09619,-1.3698 1.24171,-1.5602 0.14552,-0.19041 0.44931,-0.54884 0.67508,-0.79651 0.22578,-0.24768 1.05379,-1.28376 1.84003,-2.3024 0.78624,-1.01865 1.52628,-1.97115 1.64453,-2.11667 0.11826,-0.14552 0.79089,-1.03849 1.49474,-1.98437 0.70386,-0.94589 1.64091,-2.10498 2.08234,-2.57575 0.44143,-0.47078 0.87181,-1.03632 0.95641,-1.25677 0.0846,-0.22045 0.27955,-0.40082 0.43324,-0.40082 0.15369,0 0.39527,-0.26789 0.53684,-0.59531 0.14157,-0.32742 0.40384,-0.80039 0.58282,-1.05105 0.23399,-0.32771 0.24474,-0.53641 0.0383,-0.7429 -0.20649,-0.20649 -1.05958,0.17821 -3.03676,1.36942 -1.51228,0.91112 -2.89164,1.79567 -3.06523,1.96567 -0.1736,0.17 -1.28546,0.87766 -2.4708,1.57258 -1.18534,0.69491 -3.08443,1.87107 -4.22022,2.61368 -2.40962,1.5755 -5.44042,3.48711 -6.83203,4.30918 -2.00195,1.18262 -2.86049,1.70897 -4.0207,2.46498 -0.65484,0.42671 -1.62903,1.01629 -2.16486,1.31018 -0.53583,0.29389 -1.04469,0.64834 -1.13079,0.78766 -0.0861,0.13932 -1.01692,0.74391 -2.06848,1.34352 -1.73586,0.98981 -2.59609,1.5382 -4.35931,2.779 -0.65567,0.46141 -0.77822,1.30606 -0.26458,1.82359 0.1819,0.18327 0.98557,1.08725 1.78594,2.00883 0.80036,0.92158 1.6338,1.86842 1.85208,2.10409 0.21828,0.23567 1.39583,1.52585 2.61678,2.86706 1.22094,1.34121 2.32595,2.43857 2.45557,2.43857 0.12961,0 0.58644,-0.38695 1.01516,-0.85989 z m 59.01938,-1.5875 c 0.31305,-0.32743 1.3911,-1.66688 2.39566,-2.97657 1.00457,-1.30968 2.5907,-3.33375 3.52473,-4.49791 2.31922,-2.89065 2.29868,-3.18138 -0.31738,-4.49084 -1.12779,-0.56451 -2.36656,-1.24353 -2.75282,-1.50892 -0.38627,-0.26539 -0.89229,-0.48253 -1.12448,-0.48253 -0.2322,0 -0.42218,-0.092 -0.42218,-0.20442 0,-0.11243 -0.44649,-0.423 -0.99219,-0.69016 -1.67216,-0.81863 -4.63906,-2.35947 -5.75469,-2.98865 -0.58208,-0.32828 -2.01083,-1.08765 -3.175,-1.68749 -1.16416,-0.59983 -2.23573,-1.18201 -2.38125,-1.29372 -0.25421,-0.19516 -2.36849,-1.32557 -8.33437,-4.45604 -1.52797,-0.80177 -2.90293,-1.55386 -3.05547,-1.67132 -0.47366,-0.36472 -4.59698,-2.35404 -4.87929,-2.35404 -0.64056,0 -0.41047,0.31976 3.41306,4.74324 1.07832,1.24752 2.20941,2.51851 2.51354,2.82441 0.30412,0.3059 0.90787,0.96074 1.34167,1.4552 3.25143,3.70617 6.91271,7.82294 7.15288,8.04278 0.15899,0.14552 1.17065,1.27661 2.24813,2.51354 1.07749,1.23693 2.6784,3.02457 3.55758,3.97254 1.8286,1.97167 3.9214,4.30463 4.94809,5.51594 0.83444,0.98448 1.32458,1.03948 2.09378,0.23496 z M -3.3506531,176.13584 c 2.26194,-2.35893 4.81289,-5.01901 5.66877,-5.9113 0.85587,-0.89228 3.5802,-3.73912 6.05406,-6.3263 2.4738501,-2.58719 4.8070801,-5.0123 5.1849401,-5.38913 2.00431,-1.99883 4.47235,-4.79767 4.47235,-5.07181 0,-0.51785 -1.92435,-0.11421 -3.89372,0.81673 -4.4234101,2.09101 -5.2398301,2.50522 -5.3226001,2.70045 -0.0485,0.11441 -0.28558,0.20802 -0.52683,0.20802 -0.24124,0 -1.27312,0.40805 -2.29305,0.90677 -1.73019,0.84602 -5.94788004,2.82684 -7.14609,3.35613 -0.29105,0.12857 -0.70776,0.34637 -0.92605,0.484 -0.21828,0.13764 -1.28984,0.66225 -2.38125,1.1658 -9.4280199,4.34989 -10.6804299,4.96297 -11.3030299,5.53307 -0.56577,0.51805 -0.57098,0.56571 -0.14139,1.29293 0.24531,0.41528 0.53941,0.75505 0.65355,0.75505 0.11415,0 0.20805,0.14883 0.20868,0.33073 6.3e-4,0.1819 0.47706,0.95847 1.05875,1.72571 0.58169,0.76724 1.35076,1.8388 1.70906,2.38125 0.35829,0.54245 1.01295,1.4965 1.45479,2.12012 0.44184,0.62362 0.80334,1.17946 0.80334,1.23521 0,0.35029 1.9650699,2.20118 2.2293199,2.09978 0.17807,-0.0683 2.17445,-2.05427 4.4364,-4.41321 z m 66.9512851,-5.14886 c 2.72261,-5.62254 3.90592,-8.18984 3.90592,-8.47424 0,-0.401 -1.94958,-0.80383 -6.66684,-1.37751 -2.37235,-0.28851 -5.50399,-0.70965 -6.9592,-0.93586 -1.45521,-0.22621 -3.7174,-0.52303 -5.02708,-0.65959 -1.30969,-0.13656 -3.15516,-0.37495 -4.10105,-0.52975 -2.83415,-0.46382 -5.93868,-0.72558 -6.17061,-0.52027 -0.11962,0.10588 0.65428,0.85948 1.71979,1.67466 1.0655,0.81518 2.08109,1.60433 2.25684,1.75366 0.17576,0.14933 0.39755,0.27151 0.49286,0.27151 0.15767,0 2.91127,1.95575 3.7849,2.68822 0.20018,0.16785 1.27174,0.92077 2.38125,1.67316 1.10949,0.7524 2.8507,1.94469 3.86935,2.64955 1.01864,0.70486 2.50693,1.72878 3.30729,2.27538 0.80037,0.5466 2.11005,1.47492 2.91042,2.06293 2.24879,1.65213 2.26517,1.6424 4.29616,-2.55185 z m 79.347198,0.21171 c 0.92662,-0.57783 2.57773,-1.59443 3.66914,-2.25911 1.71941,-1.04715 4.45138,-2.77597 6.4856,-4.10416 0.33431,-0.21828 1.54879,-0.95243 2.69884,-1.63144 1.15004,-0.67901 2.2475,-1.42315 2.4388,-1.65365 0.19129,-0.23049 0.44308,-0.41908 0.55953,-0.41908 0.21758,0 4.44157,-2.55036 7.2641,-4.38591 0.87313,-0.56782 1.78737,-1.15272 2.03166,-1.2998 1.62169,-0.97637 5.45698,-3.46863 5.84595,-3.79883 0.2581,-0.2191 0.37716,-0.48003 0.26458,-0.57983 -0.24525,-0.21741 -3.98981,0.22772 -4.60786,0.54776 -0.23893,0.12373 -1.37002,0.4086 -2.51354,0.63305 -1.14352,0.22445 -2.91256,0.59254 -3.9312,0.81798 -1.01865,0.22544 -2.92365,0.63684 -4.23334,0.91422 -1.30968,0.27738 -3.75046,0.79471 -5.42395,1.14961 -1.67349,0.35492 -3.75709,0.83199 -4.63021,1.06016 -0.87313,0.22817 -2.58547,0.60261 -3.8052,0.83209 -1.21974,0.22948 -2.32779,0.48527 -2.46234,0.56842 -0.13455,0.0832 -0.86299,0.24466 -1.61876,0.35889 -2.60489,0.39373 -5.34379,1.08643 -5.69933,1.44143 -0.29883,0.29838 -0.0315,1.16829 1.65364,5.3806 1.10556,2.76358 2.01011,5.0841 2.01011,5.15671 0,0.0726 0.24828,0.69329 0.55173,1.3793 0.65946,1.49082 0.89958,1.48328 3.45205,-0.10841 z m 78.52,-7.93196 c 1.79087,-5.38622 2.15206,-6.72878 1.85898,-6.90992 -0.20007,-0.12365 -1.14077,-0.34604 -2.09045,-0.4942 -6.77084,-1.05634 -10.89955,-1.65816 -13.71776,-1.99957 -1.7929,-0.2172 -4.33851,-0.58206 -5.65691,-0.81081 -1.31839,-0.22874 -3.54241,-0.52412 -4.94226,-0.6564 -1.39984,-0.13227 -3.49767,-0.4147 -4.66184,-0.62763 -1.16416,-0.21292 -3.24776,-0.51899 -4.6302,-0.68015 -1.38245,-0.16117 -2.84097,-0.3625 -3.24115,-0.44742 -1.36496,-0.28965 -0.79699,0.59951 1.10459,1.72922 1.00771,0.59867 1.88247,1.08849 1.9439,1.08849 0.0615,0 1.6197,0.83343 3.46278,1.85208 1.84309,1.01864 3.46864,1.85208 3.61235,1.85208 0.1437,0 0.26172,0.0893 0.26227,0.19844 5.3e-4,0.10914 0.56609,0.42478 1.25677,0.70143 0.69068,0.27664 1.43437,0.64435 1.65265,0.81712 0.35594,0.28172 2.31217,1.35781 6.60854,3.63522 0.79704,0.4225 1.57094,0.86197 1.71979,0.97661 0.14885,0.11465 2.1161,1.16318 4.37167,2.33007 4.25078,2.19909 6.02891,3.16042 6.48229,3.50461 0.39927,0.30311 1.81608,0.76591 2.11667,0.69141 0.14552,-0.0361 1.26482,-3.07387 2.48732,-6.75068 z m -234.449753,2.86514 c 1.49765,-0.71305 2.77303,-1.29645 2.83418,-1.29645 0.12481,0 2.7450299,-1.21509 7.2751199,-3.37371 1.67349,-0.79743 3.69755996,-1.74672 4.49792,-2.10953 3.90394,-1.76966 5.46299,-2.49228 5.88339,-2.72696 0.25269,-0.14106 0.63964,-0.25647 0.8599,-0.25647 0.22025,0 0.40046,-0.0961 0.40046,-0.21366 0,-0.11752 0.50602,-0.4295 1.12448,-0.69328 4.6898001,-2.00031 7.6067701,-3.74014 7.6067701,-4.53707 0,-0.36307 -1.64831,-0.73936 -2.32667,-0.53117 -0.2483,0.0762 -1.8802,0.25827 -3.62645,0.40459 -1.7462501,0.14631 -4.9609401,0.44017 -7.1437501,0.65301 -2.18282,0.21284 -5.51657,0.516 -7.40834,0.67369 -3.45361,0.28786 -10.0801599,0.93673 -12.3031199,1.20471 -0.65485,0.0789 -2.11336,0.21234 -3.24115,0.29645 -1.42532,0.1063 -2.05052,0.25759 -2.05052,0.49618 0,0.30233 0.96053,4.07733 2.75958,10.84551 0.30945,1.16417 0.65859,2.27034 0.77588,2.45816 0.27617,0.44227 0.75308,0.2911 4.08232,-1.294 z m 93.982015,-4.40531 c -1.1e-4,-0.10914 -0.42819,-0.67468 -0.95129,-1.25677 -0.52311,-0.58208 -1.30881,-1.57332 -1.74602,-2.20275 -0.88956,-1.28066 -2.59415,-4.83671 -2.59415,-5.41181 0,-0.53861 -0.97201,-1.33872 -1.41829,-1.16746 -0.61255,0.23506 -1.90564,8.78292 -1.38044,9.12528 0.80367,0.52389 8.09065,1.34671 8.09019,0.91351 z m -12.78576,-3.10885 c 0.54684,-2.31099 0.97445,-6.49339 0.6927,-6.77515 -0.28824,-0.28823 -7.75196,-0.37893 -23.2286,-0.28227 -8.6419,0.054 -9.9861,0.11438 -9.5696,0.43003 0.26651,0.20198 1.09995,0.50379 1.85208,0.67069 0.75213,0.1669 1.78423,0.46011 2.29356,0.65157 0.50932,0.19146 2.05713,0.60793 3.43958,0.9255 1.38245,0.31756 2.75167,0.6742 3.04271,0.79254 0.29104,0.11834 1.30307,0.39969 2.24896,0.62524 0.94588,0.22554 3.08901,0.77834 4.7625,1.22846 1.67349,0.45011 3.51896,0.92819 4.10104,1.0624 0.95489,0.22017 4.85414,1.27178 6.87917,1.85529 0.43656,0.1258 1.32905,0.20845 1.9833,0.18367 l 1.18956,-0.045 z m -12.53205,-0.28157 c -0.26337,-0.19968 -0.86021,-0.36684 -1.3263,-0.37147 -0.4661,-0.005 -1.12094,-0.11248 -1.45521,-0.23966 -1.15719,-0.44029 -3.26825,-1.0488 -6.56089,-1.89117 -1.81901,-0.46536 -3.48588,-0.91314 -3.70416,-0.99505 -0.21828,-0.0819 -0.99219,-0.29233 -1.71979,-0.46757 -0.72761,-0.17524 -2.75167,-0.68079 -4.49792,-1.12343 -4.4318,-1.12337 -5.25979,-1.23211 -5.6649,-0.74398 -0.27617,0.33276 -0.18036,0.55086 0.57284,1.30406 0.49746,0.49747 1.19184,1.09029 1.54306,1.31739 0.79799,0.51598 4.3542,1.41544 6.45942,1.63377 0.87312,0.0905 3.19484,0.39996 5.15937,0.68759 5.32661,0.77987 11.21596,1.47788 11.45906,1.35813 0.11785,-0.0581 -0.001,-0.26893 -0.26458,-0.46861 z m 83.216948,-0.7727 c 2.00919,-0.51323 11.34889,-2.55761 12.34795,-2.70285 0.43656,-0.0635 1.03187,-0.21722 1.32291,-0.34166 0.29105,-0.12445 1.00542,-0.29207 1.5875,-0.3725 1.08275,-0.14959 1.58614,-0.25283 5.95313,-1.22084 1.38245,-0.30644 2.93026,-0.61974 3.43958,-0.69622 0.50933,-0.0765 1.10464,-0.20804 1.32292,-0.29235 0.21828,-0.0843 1.94469,-0.47756 3.83646,-0.87392 3.97135,-0.83204 5.09838,-1.21117 4.72133,-1.58822 -0.28534,-0.28535 -3.26881,-0.81161 -7.36717,-1.29953 -1.4552,-0.17324 -3.65786,-0.48367 -4.89479,-0.68985 -1.23692,-0.20617 -3.73724,-0.55617 -5.55625,-0.77777 -1.81901,-0.2216 -4.37885,-0.57847 -5.68854,-0.79304 -1.30969,-0.21458 -3.45281,-0.50726 -4.7625,-0.65042 -1.30969,-0.14316 -3.15516,-0.38665 -4.10104,-0.54109 -4.1465,-0.67702 -5.40688,-0.8183 -5.99144,-0.67158 l -0.62314,0.1564 v 7.04285 7.04284 l 1.47652,-0.17354 c 0.8121,-0.0954 2.15155,-0.34596 2.97657,-0.55671 z m -44.743438,-1.1002 c 1.44058,-0.82174 2.99767,-2.69073 3.5589,-4.27182 0.89607,-2.52434 0.3545,-6.14142 -0.91952,-6.14142 -0.28121,0 -0.97353,0.46225 -1.5385,1.02721 -0.89977,0.89977 -1.0272,1.1804 -1.0272,2.26209 0,1.61299 -0.52144,2.56768 -1.97101,3.60868 -1.01365,0.72795 -1.22732,1.04878 -1.49495,2.24464 -0.43826,1.95837 -0.25919,2.28318 1.14416,2.0753 0.62215,-0.0922 1.6338,-0.45427 2.24812,-0.80468 z m -6.70235,-1.38591 c 0.37104,-2.79703 -1.30706,-4.29212 -4.00574,-3.5689 -0.45815,0.12278 -0.59531,0.35222 -0.59531,0.99582 0,1.41006 3.05679,4.3609 4.102,3.95981 0.1826,-0.0701 0.40717,-0.6941 0.49905,-1.38673 z m 136.086088,-0.7591 c 0.34443,-1.23162 0.17544,-10.09239 -0.2258,-11.8401 -0.35136,-1.53042 -0.39703,-1.59061 -1.27001,-1.67382 -0.85468,-0.0815 -2.24241,0.17743 -6.89967,1.28717 -1.0914,0.26007 -2.52015,0.55259 -3.175,0.65005 -0.65484,0.0975 -2.08359,0.3994 -3.175,0.67098 -1.97286,0.49091 -6.72082,1.4704 -8.99583,1.8558 -0.65484,0.11094 -1.905,0.38472 -2.77813,0.60841 -1.71848,0.44027 -8.90902,1.91555 -11.20641,2.29922 -1.92399,0.3213 -2.74096,1.01905 -1.69202,1.44509 0.25466,0.10344 1.11786,0.28578 1.91823,0.4052 4.64106,0.69253 5.5943,0.8295 7.27604,1.04552 1.01864,0.13085 2.50692,0.31074 3.30729,0.39975 0.80036,0.089 1.87193,0.26802 2.38125,0.3978 0.50932,0.12977 2.05713,0.3709 3.43958,0.53584 1.38245,0.16494 4.06136,0.51879 5.95313,0.78633 1.89177,0.26755 4.51114,0.61919 5.82083,0.78142 1.30969,0.16224 3.03609,0.40923 3.83646,0.54886 2.30017,0.4013 2.70056,0.44979 4.02985,0.48805 1.1527,0.0332 1.26783,-0.0215 1.45521,-0.69157 z M 26.972262,154.14722 c 0.44279,-0.22897 1.05258,-0.76392 1.3551,-1.18876 1.00363,-1.40947 0.60529,-1.45491 -1.4165,-0.16158 -1.23986,0.79312 -1.67424,0.92604 -3.026355,0.92604 -1.44519,0 -1.6488,-0.0743 -2.40728,-0.87844 -1.1044,-1.17087 -1.59568,-2.1696 -1.59568,-3.24387 0,-0.92677 0.73508,-2.75686 1.10734,-2.75686 0.11857,0 0.21558,-0.1796 0.21558,-0.39911 0,-0.65956 -0.98957,0.11668 -1.48813,1.16732 -0.59856,1.26137 -0.36583,3.65531 0.46455,4.77846 1.54179,2.08539 4.617425,2.881 6.791375,1.7568 z m -39.237585,-1.89814 c 3.7868799,-0.4205 6.2110699,-0.65243 12.03853986,-1.15177 1.81901004,-0.15586 4.49791004,-0.41092 5.95312004,-0.56679 1.45521,-0.15587 3.30068,-0.33654 4.10104,-0.4015 3.9249201,-0.31854 7.0428301,-0.72413 7.3264601,-0.95305 0.64804,-0.52303 -0.0223,-0.96484 -2.51373,-1.65668 -1.41007,-0.39157 -3.21861,-0.90057 -4.01898,-1.13112 -1.4835001,-0.42732 -4.5837801,-1.25201 -7.6729101,-2.04104 -0.94589,-0.2416 -2.49370004,-0.66557 -3.43959004,-0.94216 -0.94587996,-0.27659 -2.49368996,-0.69367 -3.43957996,-0.92684 -0.94588,-0.23317 -2.4937,-0.64691 -3.43958,-0.91941 -2.8477199,-0.82042 -4.7896999,-1.34664 -6.8791699,-1.86405 -1.09141,-0.27026 -2.49048,-0.63225 -3.10905,-0.80442 -1.35474,-0.37708 -1.77205,-0.12926 -2.19142,1.30141 -0.55809,1.90389 -1.0329,6.04775 -1.04114,9.08634 -0.007,2.6237 0.0591,3.13345 0.43396,3.34326 0.5281,0.29554 2.87574,0.18483 7.89203,-0.37218 z m 38.066845,0.12974 c 0.38481,-0.3027 0.63196,-0.65989 0.54923,-0.79375 -0.0827,-0.13387 -0.91731,-0.2434 -1.85461,-0.2434 -1.271115,0 -1.704175,0.0926 -1.704175,0.36448 0,0.58794 0.80942,1.06693 2.014845,1.19233 0.16227,0.0169 0.60989,-0.21697 0.99471,-0.51966 z m 155.306558,-0.62251 c 0.88213,-0.83195 0.96306,-1.03124 0.96306,-2.37171 0,-1.39359 -0.0471,-1.49546 -0.98746,-2.13443 -0.93182,-0.63319 -2.19631,-0.90727 -2.18018,-0.47256 0.004,0.10914 0.35479,0.65749 0.77943,1.21856 l 0.77208,1.02012 -0.69053,1.09654 c -0.88308,1.40234 -1.39041,1.78042 -1.97167,1.46934 -0.56937,-0.30472 -0.74876,-0.30347 -0.74876,0.005 0,0.58847 0.89213,1.07723 1.96627,1.07723 0.92917,0 1.30916,-0.16452 2.09776,-0.90827 z M 22.236427,148.4974 c 0.0316,-1.02982 -0.3015,-1.11528 -0.72491,-0.18599 -0.39724,0.87186 -0.38931,1.51919 0.0237,1.93247 0.26466,0.26484 0.3651,0.20934 0.50279,-0.27782 0.0946,-0.33482 0.18394,-0.99572 0.19844,-1.46866 z M 173.28759,147.94 c 0.45053,-0.28576 -0.79806,-1.24683 -3.41931,-2.63195 -1.0738,-0.56741 -3.14298,-1.66258 -4.59819,-2.43371 -1.4552,-0.77113 -2.88395,-1.52167 -3.175,-1.66786 -0.29104,-0.14619 -0.70776,-0.36399 -0.92604,-0.48399 -0.21828,-0.12 -1.52797,-0.79971 -2.91041,-1.51047 -2.49787,-1.28423 -7.72452,-3.99283 -11.77396,-6.10159 -1.16417,-0.60625 -2.29526,-1.21418 -2.51354,-1.35097 -0.21829,-0.13679 -0.8136,-0.4259 -1.32292,-0.64247 -0.50932,-0.21656 -1.44478,-0.70106 -2.07881,-1.07664 -1.8827,-1.11531 -2.24961,-0.66435 -3.87686,4.76486 -0.34892,1.16417 -0.93758,3.12258 -1.30812,4.35204 -0.37054,1.22945 -0.67371,2.50632 -0.67371,2.83747 0,0.84635 1.02927,1.30056 3.70417,1.63462 1.23692,0.15448 3.73724,0.46499 5.55625,0.69003 1.81901,0.22503 3.9026,0.52208 4.6302,0.66011 0.72761,0.13802 2.75167,0.38671 4.49792,0.55263 1.74625,0.16592 3.41313,0.4032 3.70417,0.52728 0.29104,0.12408 1.3626,0.28917 2.38125,0.36685 1.01864,0.0777 2.68552,0.25769 3.70416,0.4 1.01865,0.14232 2.80459,0.3923 3.96875,0.55551 5.82768,0.81703 5.99862,0.83187 6.43,0.55825 z M 37.344052,147.49757 c 2.25557,-0.22163 6.00604,-0.52305 8.33438,-0.66983 7.39525,-0.46621 11.49834,-0.74702 16.93333,-1.15889 2.91042,-0.22055 5.51771,-0.40361 5.79399,-0.4068 0.46589,-0.005 0.49087,-0.16791 0.34457,-2.24113 -0.24635,-3.4908 -0.96005,-4.36392 -3.29171,-4.027 -0.54712,0.079 -3.13789,0.38189 -5.75727,0.67296 -2.61937,0.29108 -5.715,0.66221 -6.87916,0.82474 -1.16417,0.16253 -3.1287,0.39791 -4.36563,0.52307 -3.37855,0.34186 -9.20265,1.58381 -10.84792,2.31324 -0.80036,0.35485 -2.06238,0.93389 -2.80449,1.28675 -0.74211,0.35286 -1.42075,0.64157 -1.50809,0.64157 -0.39211,0 -2.56658,1.65974 -2.56658,1.95902 0,0.83231 0.70893,0.86256 6.61458,0.2823 z m 31.35634,-0.14676 c 0.23496,-0.23497 0.33966,-0.60451 0.24278,-0.85696 -0.20034,-0.52207 -0.65188,-0.5379 -4.8762,-0.17089 -1.67349,0.1454 -4.70959,0.38179 -6.74688,0.52532 -2.03729,0.14354 -4.29948,0.34875 -5.02708,0.45604 l -1.32292,0.19506 1.32292,0.13521 c 0.7276,0.0744 4.62397,0.13388 8.65859,0.13227 6.29329,-0.003 7.39438,-0.0616 7.74879,-0.41605 z m 119.191578,-0.37828 c 1.81901,-0.34729 3.78354,-0.7468 4.36562,-0.88779 0.58209,-0.14098 1.77271,-0.39806 2.64584,-0.57127 0.87312,-0.17322 2.54109,-0.5406 3.7066,-0.8164 1.1655,-0.27581 3.0705,-0.67941 4.23333,-0.89688 1.16283,-0.21747 2.65002,-0.52144 3.30486,-0.67549 0.65484,-0.15405 1.7876,-0.37823 2.51724,-0.49818 0.72964,-0.11995 2.03933,-0.39625 2.91042,-0.614 0.87109,-0.21775 2.41723,-0.54604 3.43588,-0.72953 1.01865,-0.1835 2.76489,-0.5552 3.88054,-0.82602 1.11565,-0.27081 2.32147,-0.49238 2.67958,-0.49238 0.84697,0 1.33612,-0.60509 1.11264,-1.37637 -0.1572,-0.54252 -1.68959,-4.53116 -2.26659,-5.89968 -0.12271,-0.29104 -0.53214,-1.30307 -0.90984,-2.24895 -0.3777,-0.94589 -0.85169,-2.07698 -1.05331,-2.51355 -0.20162,-0.43656 -0.42997,-1.00211 -0.50744,-1.25677 -0.21801,-0.71668 -0.94245,-0.55521 -2.671,0.59532 -0.87312,0.58115 -1.68942,1.05702 -1.81401,1.05749 -0.12457,5.3e-4 -0.67749,0.35803 -1.22869,0.79459 -0.55121,0.43656 -1.08091,0.79375 -1.17712,0.79375 -0.0962,0 -1.07784,0.59531 -2.1814,1.32292 -1.10356,0.7276 -2.11386,1.32291 -2.24511,1.32291 -0.13125,0 -0.56123,0.22733 -0.95552,0.50518 -1.03492,0.72927 -5.88166,3.72816 -6.02539,3.72816 -0.0668,0 -0.81916,0.47625 -1.67191,1.05833 -0.85275,0.58208 -1.63325,1.05833 -1.73445,1.05833 -0.1012,0 -0.57424,0.29766 -1.05121,0.66146 -0.47697,0.3638 -1.00481,0.66146 -1.17297,0.66146 -0.16817,0 -0.30576,0.11104 -0.30576,0.24675 0,0.13572 -0.26116,0.32965 -0.58036,0.43096 -0.31921,0.10131 -1.15142,0.58558 -1.84937,1.07616 -0.69795,0.49058 -1.32379,0.89196 -1.39075,0.89196 -0.067,0 -0.63373,0.33897 -1.25948,0.75325 -0.62576,0.41429 -1.55446,0.97984 -2.06379,1.25677 -0.50932,0.27694 -1.35989,0.83095 -1.89015,1.23113 -0.53027,0.40018 -1.09582,0.7276 -1.25678,0.7276 -0.3281,0 -0.39587,0.60234 -0.10094,0.89727 0.10544,0.10544 0.43286,0.11774 0.7276,0.0273 0.29475,-0.0904 2.02418,-0.44852 3.84319,-0.79582 z M 75.440192,146.85098 c 0.15205,-0.28412 0.14808,-1.7122 -0.0104,-3.73919 -0.36904,-4.71967 -0.37371,-4.7347 -1.47028,-4.7347 -0.59968,0 -0.97008,0.14792 -1.07861,0.43073 -0.31789,0.82841 0.74679,7.72646 1.30934,8.48323 0.29143,0.39204 0.92375,0.16941 1.24994,-0.44007 z m 10.15482,0.38675 c 0.22263,-0.58016 -0.0682,-1.77121 -0.60686,-2.48532 l -0.46696,-0.61908 -0.72269,0.7599 c -0.82957,0.87228 -1.29317,1.88313 -1.09751,2.39302 0.19853,0.51737 2.69292,0.47554 2.89402,-0.0485 z m -68.134825,-0.62817 c 0.63535,-0.40264 0.19815,-1.18714 -1.19292,-2.14057 -0.74832,-0.51289 -1.93788,-1.34197 -2.64346,-1.84239 -0.70559,-0.50043 -2.89023,-1.9988 -4.8547601,-3.32972 -5.10607,-3.45924 -6.99907,-4.75805 -13.31985,-9.13889 -1.14128,-0.79101 -2.35401,-1.61679 -2.69495,-1.83507 -0.34094,-0.21828 -1.72513,-1.15377 -3.0759699,-2.07885 -1.81232,-1.24112 -2.5623,-1.61872 -2.8613,-1.44062 -0.34658,0.20643 -1.23127,1.86293 -2.79816,5.23926 -2.11172,4.55036 -2.76279,6.0933 -2.82529,6.6955 -0.0685,0.66052 0.05,0.74656 1.77865,1.29071 2.15718,0.67907 4.55539,1.35881 8.0697899,2.28729 1.38244,0.36523 3.40651,0.90491 4.49791,1.19928 1.09141,0.29438 3.175,0.8561 4.63020996,1.24828 1.45521004,0.39217 3.06255004,0.80381 3.57188004,0.91475 0.50932,0.11094 1.81901,0.45346 2.91041,0.76115 1.09141,0.30769 2.93688,0.78519 4.1010501,1.06111 1.16416,0.27592 2.71197,0.67619 3.43958,0.88949 1.5506,0.45455 2.7671,0.5362 3.26718,0.21929 z m 166.976803,-1.35769 c 0.95435,-0.5845 1.96636,-1.20958 2.24889,-1.38906 2.10439,-1.33687 3.33369,-2.04614 3.54632,-2.04614 0.13694,0 0.31752,-0.17859 0.40128,-0.39688 0.0838,-0.21828 0.33108,-0.39687 0.5496,-0.39687 0.34136,0 1.27674,-0.57111 5.17556,-3.16004 0.3638,-0.24157 1.07817,-0.6445 1.5875,-0.89539 0.50932,-0.2509 2.03337,-1.16747 3.38677,-2.03683 1.35341,-0.86936 2.56106,-1.58066 2.68367,-1.58066 0.12262,0 0.29147,-0.17859 0.37524,-0.39687 0.0838,-0.21828 0.3781,-0.39688 0.65408,-0.39688 0.27599,0 0.78574,-0.22082 1.13278,-0.49073 0.6092,-0.47377 4.57642,-2.99923 5.65808,-3.60182 1.84393,-1.02725 4.89405,-3.15315 4.89019,-3.40841 -0.01,-0.65741 -8.90904,-10.4907 -9.49406,-10.4907 -0.34845,0 -1.08497,0.78717 -2.97068,3.175 -1.98547,2.51414 -2.89613,3.64305 -3.93482,4.87783 -0.50933,0.60547 -1.2237,1.49712 -1.5875,1.98146 -0.36381,0.48434 -0.85639,1.09023 -1.09463,1.34643 -0.23824,0.2562 -0.53646,0.65039 -0.66271,0.87598 -0.12624,0.22559 -0.61285,0.86411 -1.08135,1.41892 -1.54945,1.83493 -5.3634,6.68962 -5.3634,6.82696 0,0.0742 -0.20836,0.3611 -0.46302,0.63755 -1.23812,1.34406 -2.18381,2.48262 -3.63802,4.38001 -0.87312,1.13922 -2.21191,2.85815 -2.97509,3.81985 -2.13193,2.68653 -1.84916,3.07715 0.97532,1.34729 z m -151.834608,-0.4213 c 0.22974,-0.20244 0.55953,-0.36807 0.73287,-0.36807 0.37404,0 2.4213,-1.25899 2.4213,-1.48901 0,-0.20797 -2.68816,0.10082 -4.31971,0.49621 -1.30682,0.31669 -1.9355,0.96244 -1.65321,1.69809 0.11978,0.31214 0.39871,0.35912 1.27715,0.21511 0.61814,-0.10134 1.31186,-0.34989 1.5416,-0.55233 z m 147.352088,-1.16182 c 0,-0.23541 0.17481,-0.65914 0.38846,-0.94162 0.21365,-0.28247 0.39225,-0.77445 0.39688,-1.09328 0.005,-0.31884 0.11374,-0.6448 0.24249,-0.72437 0.12874,-0.0796 0.29372,-0.47355 0.36662,-0.87551 0.11845,-0.65314 0.37363,-1.44684 1.00057,-3.11209 0.61235,-1.62649 1.29898,-3.59933 1.65754,-4.7625 0.2243,-0.72761 1.14436,-3.40651 2.04458,-5.95313 0.90022,-2.54661 1.85189,-5.34458 2.11482,-6.21771 0.26292,-0.87312 0.97222,-2.95671 1.5762,-4.6302 0.60399,-1.67349 1.19179,-3.3999 1.30623,-3.83646 0.11444,-0.43656 0.40346,-1.25478 0.64226,-1.81825 0.2388,-0.56347 0.43418,-1.47003 0.43418,-2.01458 0,-0.92343 -0.0757,-1.01795 -1.12448,-1.40427 -3.10777,-1.14476 -11.82265,-2.1447 -12.52962,-1.43764 -0.42469,0.42475 0.11763,36.20881 0.59633,39.34744 0.13238,0.86793 0.16288,0.89241 0.51383,0.41245 0.20521,-0.28064 0.37311,-0.70286 0.37311,-0.93828 z m 2.19089,0.35541 c 0.4685,-0.53213 1.08994,-1.29069 1.38098,-1.6857 0.43003,-0.58363 6.18084,-7.75486 7.7011,-9.60322 0.21825,-0.26536 1.01557,-1.28296 1.77182,-2.26135 2.79759,-3.61932 3.7844,-4.85532 4.94912,-6.19889 0.65608,-0.75682 1.48167,-1.79276 1.83466,-2.30208 0.35299,-0.50932 1.00682,-1.35301 1.45297,-1.87487 1.41878,-1.65955 2.65552,-3.21566 2.90389,-3.65378 0.13235,-0.23346 0.52898,-0.71828 0.88141,-1.07738 1.4107,-1.43741 1.29215,-1.9351 -0.72517,-3.04462 -3.67953,-2.0237 -10.34722,-5.17965 -10.60573,-5.01989 -0.35748,0.22094 -1.56511,2.87281 -1.56511,3.43688 0,0.21611 -0.11064,0.59967 -0.24587,0.85236 -0.13523,0.25268 -1.0992,3.0788 -2.14215,6.28026 -1.04296,3.20146 -2.00086,6.02275 -2.12868,6.26954 -0.12782,0.24679 -0.83669,2.27085 -1.57526,4.49791 -0.73857,2.22707 -1.44492,4.28734 -1.56966,4.57838 -0.12475,0.29104 -0.37502,1.12448 -0.55616,1.85208 -0.18114,0.72761 -0.4728,1.50151 -0.64814,1.7198 -0.30812,0.38359 -0.821,2.00522 -1.10876,3.50572 -0.0768,0.40019 -0.24509,0.72761 -0.3741,0.72761 -0.129,0 -0.23628,0.20836 -0.2384,0.46302 -0.002,0.25466 -0.18643,0.98733 -0.40958,1.62816 -0.36969,1.06164 -0.36259,1.87757 0.0163,1.87757 0.0818,0 0.532,-0.43538 1.00049,-0.96751 z m -163.057563,0.0566 c 0,-0.20996 -0.26435,-0.83504 -0.58744,-1.38906 -0.6744,-1.15642 -5.26858,-7.68794 -5.8264,-8.28335 -0.20449,-0.21829 -0.89619,-1.17079 -1.53711,-2.11667 -1.05226,-1.55296 -1.4160501,-2.05785 -2.7642401,-3.83646 -0.22062,-0.29104 -1.16651,-1.60073 -2.10199,-2.91042 -0.93548,-1.30968 -2.09355,-2.9054 -2.57348,-3.54603 -0.47993,-0.64063 -0.9936,-1.37057 -1.14149,-1.62209 -0.14789,-0.25152 -0.68561,-1.01193 -1.19493,-1.68982 -0.50933004,-0.67788 -1.52593004,-2.03078 -2.25913004,-3.00645 -0.73318996,-0.97566 -1.54951996,-1.81562 -1.81405996,-1.86657 -0.33516,-0.0645 -1.82903,1.28757 -4.92777,4.46017 -2.4457399,2.50403 -4.5018899,4.76347 -4.5692299,5.02096 -0.093,0.3556 0.64899,1.00038 3.0858599,2.68162 1.76456,1.2174 3.4153,2.33264 3.66831,2.47833 0.25301,0.14569 2.5152,1.70772 5.02707996,3.47119 5.46904004,3.83953 13.12680014,9.03983 14.30393014,9.71364 0.46556,0.26649 1.28597,0.83203 1.82314,1.25677 0.53717,0.42473 1.10272,0.77224 1.25677,0.77224 0.15405,0 0.2801,0.11033 0.2801,0.24519 0,0.13485 0.20836,0.29963 0.46302,0.36618 0.92377,0.24141 1.38906,0.17462 1.38906,-0.19937 z m 151.444583,-0.0999 c 0.46892,-0.75873 -9.82375,-14.09651 -15.09201,-19.55704 -0.45864,-0.47538 -0.74314,-0.92041 -0.63222,-0.98897 0.11092,-0.0686 0.50937,0.19955 0.88545,0.59577 0.37608,0.39623 1.78644,1.88127 3.13415,3.3001 2.22916,2.3468 3.13505,3.01905 3.13505,2.32648 0,-0.24735 -5.08075,-10.86722 -5.57503,-11.65304 -0.13731,-0.21828 -0.38344,-0.69453 -0.54698,-1.05833 -1.29629,-2.88377 -2.04387,-3.96875 -2.73457,-3.96875 -0.51652,0 -3.84343,2.93768 -3.84309,3.39347 2.6e-4,0.44426 0.56648,1.19433 2.26374,2.99912 0.50101,0.53276 0.91093,1.03877 0.91093,1.12448 0,0.33731 -0.81945,0.13213 -0.96265,-0.24103 -0.0838,-0.21828 -0.27169,-0.39688 -0.41762,-0.39688 -0.14593,0 -0.91097,-0.59008 -1.7001,-1.3113 -0.78913,-0.72122 -1.59345,-1.25042 -1.78738,-1.176 -0.19393,0.0744 -1.64857,1.81025 -3.23253,3.85741 -1.58396,2.04716 -3.32982,4.273 -3.87969,4.94631 -0.56042,0.68623 -0.96737,1.45236 -0.92604,1.74338 0.0456,0.32087 0.68006,0.86077 1.66122,1.41354 1.63478,0.92102 9.6241,5.07417 23.05925,11.98709 1.8695,0.96192 3.8158,1.99527 4.32513,2.29633 0.98524,0.58236 1.73521,0.72348 1.95499,0.36786 z M 153.1019,121.97568 c -0.41679,-0.43504 -0.67595,-0.87285 -0.5759,-0.9729 0.19353,-0.19353 1.76389,1.18535 1.76389,1.54881 0,0.41845 -0.43941,0.20543 -1.18799,-0.57591 z m 24.86284,10.64672 c -0.16538,-14.69441 -0.64549,-27.77707 -1.03064,-28.08385 -0.16631,-0.13247 -1.28787,-0.0159 -2.66817,0.27734 -1.30969,0.27824 -2.91703,0.60872 -3.57188,0.7344 -5.80514,1.1142 -7.20628,1.46107 -7.34323,1.81794 -0.15514,0.4043 0.46072,2.57376 1.25424,4.41823 0.25042,0.58209 0.67183,1.65365 0.93646,2.38125 0.26463,0.72761 0.56733,1.44198 0.67267,1.5875 0.10533,0.14552 0.31244,0.6813 0.46025,1.19063 0.14781,0.50932 0.87588,2.41432 1.61794,4.23333 0.74205,1.81901 1.6023,3.96213 1.91165,4.7625 0.76753,1.98576 1.28198,3.21956 1.5706,3.76672 0.13329,0.25269 0.24234,0.58141 0.24234,0.73049 0,0.26061 0.84095,2.286 1.34453,3.23826 0.13364,0.25269 0.24297,0.64094 0.24297,0.86278 0,0.22184 0.25198,0.9676 0.55995,1.65724 1.1187,2.50507 1.29213,2.92499 1.29213,3.12856 0,0.11397 0.24602,0.75082 0.54671,1.41523 0.30069,0.6644 0.7754,1.71403 1.0549,2.33249 0.2795,0.61846 0.62713,1.12448 0.77252,1.12448 0.17401,0 0.21982,-3.95522 0.13406,-11.57552 z m -88.399948,10.71562 c 0.0877,-0.32742 0.16116,-0.87122 0.16315,-1.20845 0.003,-0.51328 -0.0933,-0.58385 -0.5917,-0.43328 -0.91007,0.27495 -0.98374,0.4472 -0.58899,1.37715 0.4267,1.00524 0.79349,1.10061 1.01754,0.26458 z m -69.254925,-1.20883 c -0.20561,-0.39017 -0.73135,-1.4833 -1.16831,-2.42919 -1.26973,-2.74858 -5.08398,-10.67774 -5.34556,-11.1125 -0.25148,-0.41797 -0.81156,-1.54679 -5.8418801,-11.77396 -1.71782,-3.49249 -3.29046,-6.57621 -3.49475,-6.85269 -0.40949,-0.55417 -0.28508,-0.59172 -3.09865,0.93522 -1.41172004,0.76615 -2.65097,1.79921 -2.63294,2.19488 0.007,0.15566 0.48409996,0.93786 1.06001996,1.73822 0.57593,0.80036 1.53822004,2.16958 2.13844004,3.04271 0.60021,0.87312 1.22949,1.70656 1.39839,1.85208 0.1689,0.14552 0.59619,0.74083 0.94954,1.32292 0.35334,0.58208 1.53901,2.27084 2.63481,3.75281 1.0958,1.48196 2.70674,3.72565 3.5798601,4.98598 0.87313,1.26032 2.06386,2.90531 2.64608,3.65552 0.58221,0.75021 1.38464,1.84027 1.78317,2.42235 0.39853,0.58209 0.99066,1.41552 1.31583,1.85209 0.32518,0.43656 1.36127,1.82847 2.30242,3.09313 0.94116,1.26467 1.80933,2.23874 1.92928,2.1646 0.11994,-0.0741 0.0499,-0.45401 -0.15575,-0.84417 z m 3.93037,-0.90783 c 0.10533,-0.47295 0.291905,-1.75287 0.414615,-2.84427 0.1227,-1.09141 0.35192,-3.11547 0.50936,-4.49792 0.15744,-1.38245 0.40037,-3.82323 0.53983,-5.42396 0.13947,-1.60073 0.35885,-3.80338 0.48752,-4.89479 0.12868,-1.09141 0.43381,-3.94891 0.67807,-6.35 0.24427,-2.40109 0.55782,-5.02763 0.69677,-5.83676 0.13896,-0.80912 0.25784,-1.99975 0.26417,-2.64583 0.006,-0.64609 0.10787,-1.67229 0.22563,-2.28044 0.11776,-0.60816 0.1308,-1.24056 0.029,-1.40532 -0.28869,-0.46712 -5.678605,-0.65587 -8.234755,-0.28837 -5.34953,0.7691 -5.93166,1.06902 -5.68953,2.93133 0.26816,2.06254 0.45755,3.02632 0.70197,3.57227 0.19217,0.42924 1.88596,7.22447 2.47315,9.92187 0.0792,0.3638 0.37742,1.4949 0.66272,2.51354 0.2853,1.01865 1.01329,3.75708 1.61774,6.08542 0.60445,2.32833 1.33076,5.1263 1.61401,6.21771 0.87196,3.35974 2.0442,6.08541 2.61719,6.08541 0.11059,0 0.28725,-0.38695 0.39258,-0.85989 z m 3.412725,-2.93228 c 0.67343,-1.13981 1.22442,-2.23412 1.22442,-2.43178 0,-0.19767 0.12533,-0.43686 0.27851,-0.53153 0.46089,-0.28484 8.01183,-15.80684 10.16398,-20.89347 0.55413,-1.30969 1.23513,-2.87752 1.51334,-3.48408 0.27821,-0.60656 0.57317,-1.51776 0.65546,-2.02491 0.1832,-1.1289 -0.005,-1.25136 -3.09601,-2.01122 -1.23158,-0.30279 -3.54892,-0.90537 -5.14965,-1.33908 -1.60073,-0.4337 -3.23784,-0.79068 -3.63802,-0.79328 -0.64554,-0.004 -0.72757,0.0923 -0.72727,0.85517 1.9e-4,0.47294 -0.11394,1.8124 -0.25362,2.97656 -0.13967,1.16417 -0.50244,4.73605 -0.80615,7.9375 -0.3037,3.20146 -0.66583,6.32856 -0.80471,6.94911 -0.13889,0.62055 -0.25237,1.69211 -0.25218,2.38125 2.6e-4,1.36121 -0.4062,4.96271 -0.79855,7.07381 -0.13523,0.7276 -0.32438,2.98979 -0.42034,5.02708 l -0.17446,3.70417 0.53042,-0.66146 c 0.29173,-0.3638 1.0814,-1.59403 1.75483,-2.73384 z m 147.010958,2.00623 c -0.10582,-0.5457 -0.37796,-1.46843 -0.60475,-2.05052 -0.22679,-0.58208 -0.73174,-1.89177 -1.12212,-2.91041 -0.39038,-1.01865 -0.86813,-2.20927 -1.06167,-2.64584 -0.19355,-0.43656 -0.54309,-1.37691 -0.77676,-2.08966 -0.23368,-0.71276 -0.71796,-1.93668 -1.07618,-2.71982 -0.35822,-0.78315 -0.65097,-1.5692 -0.65057,-1.7468 5.3e-4,-0.17758 -0.23592,-0.79913 -0.52516,-1.38122 -0.56681,-1.14068 -2.13656,-5.08923 -3.62887,-9.12812 -1.00256,-2.71336 -1.32559,-3.52515 -2.05306,-5.15937 -0.25912,-0.58209 -0.57308,-1.32623 -0.69771,-1.65365 -0.12462,-0.32742 -0.41593,-0.59531 -0.64735,-0.59531 -0.68363,0 -4.35483,1.7904 -4.35483,2.1238 0,0.77338 6.58834,14.34159 9.18244,18.91057 2.98719,5.2613 7.55406,12.03854 8.11224,12.03854 0.0532,0 0.0102,-0.44648 -0.0957,-0.99219 z m -135.203198,0.2995 c 3.99318,-0.76449 7.622,-2.07061 11.37708,-4.09497 1.19777,-0.64572 4.82234,-2.35609 4.99295,-2.35609 0.10983,0 0.81669,-0.29765 1.57082,-0.66146 0.75412,-0.3638 1.42864,-0.66145 1.49892,-0.66145 0.0703,0 1.01786,-0.41672 2.10573,-0.92605 1.08787,-0.50932 2.10771,-0.92604 2.26631,-0.92604 0.1586,0 0.59632,-0.28555 0.9727,-0.63455 l 0.68434,-0.63455 -1.49041,-2.20972 c -0.81973,-1.21535 -2.09432,-3.04316 -2.83242,-4.0618 -0.73811,-1.01865 -1.62212,-2.2688 -1.96448,-2.77813 -0.34235,-0.50932 -0.90652,-1.26953 -1.2537,-1.68936 -0.56951,-0.68867 -0.69249,-0.73054 -1.25756,-0.42812 -1.85463,0.99256 -21.96195,21.37651 -21.96195,22.26408 0,0.36998 2.87846,0.26022 5.29167,-0.20179 z m -6.11871,-1.37552 c 17.20164,-16.63528 21.99371,-21.42132 21.99371,-21.96601 0,-0.26362 -1.36764,-1.47901 -3.32764,-2.95719 -4.84244,-3.65205 -5.8582,-4.31465 -6.33427,-4.13196 -0.23077,0.0885 -0.81384,1.02558 -1.29571,2.08229 -0.48188,1.05671 -1.53214,3.29051 -2.3339,4.964 -0.80177,1.67349 -1.79179,3.81661 -2.20005,4.7625 -0.40826,0.94588 -0.87747,1.89838 -1.04269,2.11667 -0.16522,0.21828 -0.70003,1.28984 -1.18847,2.38125 -0.48843,1.0914 -2.05845,4.52834 -3.48892,7.63764 -1.43047,3.1093 -2.60085,5.83167 -2.60085,6.0497 0,0.33957 0.0974,0.3326 0.67915,-0.0486 0.37353,-0.24475 0.88637,-0.6454 1.13964,-0.89033 z m 19.21631,-0.1703 c 2.91001,-0.35806 6.42203,-0.78443 7.80448,-0.94751 1.38245,-0.16308 3.01275,-0.4059 3.62289,-0.53962 0.61015,-0.13371 1.46916,-0.24311 1.90892,-0.24311 1.1507,0 1.46509,-0.72251 0.94459,-2.17075 -0.22466,-0.62509 -0.59714,-1.67232 -0.82774,-2.32716 -0.2306,-0.65485 -0.55409,-1.2781 -0.71886,-1.38502 -0.39336,-0.25522 -1.48994,-0.25821 -1.49121,-0.004 -5.3e-4,0.10914 -0.56609,0.42134 -1.25677,0.69378 -0.69068,0.27243 -2.08922,0.88977 -3.10786,1.37185 -4.23996,2.00658 -7.10377,3.29218 -7.33372,3.29218 -0.13473,0 -0.79624,0.32742 -1.47002,0.7276 -0.67378,0.40018 -1.70153,0.9195 -2.28388,1.15403 -0.58235,0.23453 -1.10399,0.56196 -1.15921,0.7276 -0.0552,0.16565 -0.0604,0.30118 -0.0115,0.30118 0.0489,0 2.46984,-0.29295 5.37986,-0.65101 z m 27.04032,-0.19464 c 1.2357,-1.19769 1.14051,-1.5356 -0.43259,-1.5356 -1.4706,0 -1.82633,0.44263 -1.35404,1.68485 0.34607,0.91021 0.72632,0.87844 1.78663,-0.14925 z m 21.146398,-1.82075 c 0.48922,-0.30235 0.97952,-0.68931 1.08956,-0.8599 0.11004,-0.17058 0.80288,-0.84594 1.53965,-1.50078 1.72619,-1.53427 5.91936,-5.30656 6.47025,-5.82083 0.23383,-0.21829 1.30913,-1.17079 2.38957,-2.11667 1.08044,-0.94589 2.73992,-2.44771 3.68773,-3.33739 2.00103,-1.8783 2.53541,-2.36441 4.766,-4.33553 1.91072,-1.68844 2.60032,-2.30821 4.23334,-3.80462 0.65484,-0.60006 1.66687,-1.49441 2.24895,-1.98743 0.58209,-0.49303 1.89837,-1.68346 2.92508,-2.64541 2.16637,-2.02973 6.27859,-5.77102 8.18742,-7.4489 1.35798,-1.19367 4.4078,-3.977014 6.43331,-5.871194 1.51028,-1.41235 2.03609,-2.22959 1.706,-2.65158 -0.14172,-0.18117 -0.32266,-0.56753 -0.40209,-0.85857 -0.0794,-0.29104 -0.52119,-1.5412 -0.9817,-2.77813 -0.4605,-1.23692 -1.02098,-2.78474 -1.2455,-3.43958 -0.22452,-0.65484 -0.50269,-1.30969 -0.61815,-1.45521 -0.11545,-0.14552 -0.34489,-0.7694 -0.50985,-1.3864 -0.21501,-0.80418 -0.46581,-1.16181 -0.88577,-1.26307 -0.32221,-0.0777 -18.74286,-0.10865 -40.93479,-0.0688 l -40.348958,0.0724 0.0802,0.75315 c 0.085,0.79883 0.70491,2.18193 5.41368,12.07914 0.72695,1.52797 1.85448,3.909224 2.5056,5.291674 0.65113,1.38245 2.05154,4.29948 3.11202,6.48229 3.00279,6.18067 6.74534,13.98251 10.09021,21.03437 2.36054,4.97666 2.24017,4.76529 3.02817,5.31712 0.55707,0.39011 0.9528,0.41684 3.02225,0.20415 3.52955,-0.36277 3.46179,-0.3339 3.79047,-1.61481 0.86974,-3.38948 1.03495,-5.30519 0.54942,-6.37082 -0.29921,-0.65668 -1.75084,-1.50439 -2.57616,-1.50439 -1.09563,0 -1.45247,-1.5601 -0.74444,-3.25466 0.32168,-0.7699 0.55555,-0.90776 2.3151,-1.3647 3.50094,-0.90917 4.77549,-0.63882 8.71621,1.84885 1.022038,0.64518 1.046268,0.69595 1.046268,2.19174 0,0.8422 -0.14287,1.67414 -0.3175,1.84877 -0.18366,0.18366 -1.063578,0.3175 -2.087348,0.3175 -2.57161,0 -2.81163,0.26661 -3.45156,3.83409 -0.28537,1.59086 -0.4834,3.30384 -0.44008,3.80662 0.0741,0.85935 0.21359,0.98256 2.32774,2.05551 1.23693,0.62775 2.4135,1.14369 2.61461,1.14653 0.2011,0.003 0.765908,-0.24221 1.255128,-0.54457 z m -27.306998,-0.93378 c 0.23018,-0.0883 0.41851,-0.35798 0.41851,-0.59922 0,-0.46903 -1.714,-5.60394 -2.11626,-6.34004 -0.13248,-0.24242 -0.48023,-1.01195 -0.77276,-1.71007 -1.10362,-2.63368 -5.81713,-9.93314 -6.83442,-10.58395 -0.1819,-0.11637 -0.33073,-0.33741 -0.33073,-0.4912 0,-0.44547 -5.75827,-5.97224 -7.9375,-7.61837 -3.12692,-2.362 -6.81313,-4.59309 -7.28778,-4.41094 -0.27642,0.10607 -0.39183,0.41129 -0.33671,0.89049 0.0675,0.58679 0.73872,1.22229 3.43859,3.25562 9.2613,6.9749 12.96763,11.13009 16.76928,18.80014 1.08122,2.18142 2.62603,5.93139 2.87699,6.98376 0.18381,0.77083 1.09958,1.98438 1.49745,1.98438 0.10825,0 0.38515,-0.0723 0.61534,-0.1606 z m 6.27678,-0.78858 c 0.5628,-0.34783 0.11603,-1.53811 -2.92031,-7.78021 -0.74275,-1.52695 -1.35046,-2.92594 -1.35046,-3.10886 0,-0.18292 -0.11906,-0.33258 -0.26458,-0.33258 -0.14552,0 -0.26459,-0.1094 -0.26459,-0.2431 0,-0.29198 -1.47153,-3.43312 -5.32551,-11.36781 -1.58211,-3.2573 -2.87657,-5.96186 -2.87657,-6.01013 0,-0.0483 -0.89832,-1.96712 -1.99627,-4.26409 -1.09795,-2.296984 -2.67553,-5.600034 -3.50573,-7.340124 -2.68134,-5.62003 -4.14928,-8.41435 -4.41987,-8.41351 -0.14553,5.3e-4 -0.73591,0.93866 -1.31198,2.0849 -1.83878,3.65877 -5.69948,12.070694 -5.69948,12.418374 0,0.32411 2.01881,1.96882 2.41665,1.96882 0.10765,0 1.00693,0.55246 1.99839,1.22768 8.25106,5.61926 14.56358,12.80628 18.791,21.39419 1.30668,2.6545 3.51687,8.10269 3.51687,8.6692 0,0.0879 0.12211,0.48107 0.27136,0.87362 0.25473,0.66998 0.34523,0.70359 1.47715,0.54844 0.66319,-0.0909 1.32195,-0.23706 1.46393,-0.32481 z m -60.606475,-4.0637 c -0.16195,-0.51713 -0.46363,-1.77646 -0.67041,-2.79849 -0.20678,-1.02204 -0.51256,-2.21267 -0.67951,-2.64584 -0.16696,-0.43317 -0.40509,-1.32336 -0.52918,-1.97821 -0.1241,-0.65484 -0.7795,-3.33375 -1.45645,-5.95312 -0.67695,-2.61938 -1.33076,-5.17922 -1.45292,-5.68854 -0.53733,-2.24042 -1.49107,-5.55344 -1.6422,-5.70457 -0.17328,-0.17327 -2.45701,0.41475 -4.3716501,1.12563 -0.78628,0.29193 -1.12448,0.56993 -1.12448,0.92434 0,0.458 2.68038,6.0478 9.6165801,20.05493 1.78885,3.61245 2.44584,4.72277 2.51332,4.24755 0.0503,-0.35388 -0.0412,-1.06654 -0.2031,-1.58368 z M 7.7554869,103.03867 c 2.6100401,-0.64418 7.3635601,-2.25246 7.3635601,-2.49134 0,-0.3747 -4.0259,-0.577094 -5.5521701,-0.27912 -1.99173,0.38885 -4.69775,1.32694 -5.04918,1.75038 -0.15966,0.19238 -0.21289,0.59361 -0.1183,0.89163 0.2124,0.66923 1.03716,0.7008 3.35609,0.12845 z m 36.3354451,-0.3655 c 0,-1.36146 -3.2034,-2.37369 -7.54063,-2.38274 -3.7137,-0.008 -3.76368,0.29345 -0.23237,1.40033 1.65577,0.51899 3.52578,1.0575 4.15558,1.19669 0.62979,0.13919 1.22078,0.32877 1.31332,0.4213 0.0925,0.0925 0.6488,0.13287 1.23616,0.0896 0.93477,-0.0688 1.06794,-0.15922 1.06794,-0.72522 z M 4.7473769,98.107506 c 0.17463,-0.17463 0.3175,-0.63634 0.3175,-1.02603 0,-0.94781 -0.71938,-2.62432 -1.12803,-2.62884 -0.17994,-0.002 -0.57732,-0.0708 -0.88304,-0.15283 -0.32912,-0.0884 -0.72811,0.023 -0.97809,0.27299 -0.37362,0.37363 -0.38028,0.56158 -0.0578,1.63307 0.20043,0.66596 0.56972,1.43771 0.82066,1.71499 0.51629,0.5705 1.43512,0.66034 1.90881,0.18665 z m 40.4812551,0 c 1.02449,-1.02449 -0.70038,-3.78192 -2.25408,-3.60347 -0.88658,0.10183 -1.03879,0.71378 -0.54846,2.20496 0.46531,1.4151 2.01342,2.18763 2.80254,1.39851 z m -45.84168514,-0.49342 c 0.2869,-0.46421 -0.11201,-1.96656 -0.68566996,-2.58231 -0.37362,-0.40104 -0.84918,-0.57552 -1.56859,-0.57552 -1.27693,0 -1.4292,0.2299 -1.0601,1.60063 0.22426,0.83284 0.48728,1.16869 1.13632,1.45096 1.02068,0.44389 1.94159996,0.48881 2.17803996,0.10624 z M 10.158107,96.917596 c 0.25424,-0.14263 0.25124,-1.70476 -0.004,-2.10352 -0.1928601,-0.30127 -0.9685101,-0.4434 -2.1126101,-0.38711 -0.76482,0.0376 -0.79189,0.89426 -0.0659,2.08503 0.45238,0.74197 0.63113,0.84033 1.25578,0.69102 0.40057,-0.0958 0.8176101,-0.22419 0.9267501,-0.28542 z m 29.241055,-0.49769 c 0.11705,-0.84136 -0.89917,-2.22824 -1.6327,-2.22824 -1.02759,0 -1.48074,0.27795 -1.48074,0.90823 0,1.42296 2.92651,2.66371 3.11344,1.32001 z m -24.262725,-0.65005 c 0.73154,-0.3915 0.65449,-1.2677 -0.12875,-1.46428 -1.01613,-0.25504 -1.60075,-0.0303 -1.69773,0.65262 -0.13687,0.9639 0.78039,1.37152 1.82648,0.81166 z m 17.677455,-0.22974 c 0.75983,-0.48128 -0.70712,-1.45151 -1.77313,-1.17274 -0.66001,0.1726 -0.47696,0.83023 0.32082,1.15258 0.73143,0.29554 1.01139,0.29943 1.45231,0.0202 z M 142.64822,60.716435 c 0.50932,-0.0946 1.43076,-0.39989 2.04764,-0.67854 0.61687,-0.27866 1.3031,-0.50664 1.52494,-0.50664 0.22184,0 0.61009,-0.10612 0.86278,-0.23583 0.25269,-0.1297 1.1456,-0.43394 1.98426,-0.67607 1.60402,-0.46312 2.46283,-1.29664 2.15703,-2.09353 -0.0916,-0.23879 -0.21098,-0.43416 -0.26522,-0.43416 -0.0542,0 -0.71316,0.46513 -1.46426,1.03362 -0.75111,0.5685 -1.61673,1.146 -1.9236,1.28335 -1.73132,0.77492 -5.57097,1.89779 -6.52665,1.90866 -0.37237,0.004 -0.90815,0.19117 -1.19062,0.4154 -0.47834,0.37972 -0.43187,0.39905 0.67703,0.28167 0.65485,-0.0693 1.60735,-0.20338 2.11667,-0.29793 z m 2.15036,-5.87554 c 0.86363,-0.86364 -3.95774,-0.73238 -5.98154,0.16285 -1.23508,0.54633 -1.77867,1.25692 -1.22384,1.59982 0.37998,0.23485 6.77142,-1.32871 7.20538,-1.76267 z m -11.0582,1.01107 c 1.53618,-0.86282 1.85873,-1.02815 3.18195,-1.63097 0.70707,-0.32212 2.13582,-0.8611 3.175,-1.19774 l 1.88943,-0.61208 -1.50844,-0.0118 c -0.82965,-0.006 -2.17384,0.16148 -2.9871,0.3733 -1.57234,0.40955 -5.57609,2.63815 -5.80332,3.2303 -0.2038,0.53112 0.99509,0.44293 2.05248,-0.15097 z"
       id="path28157" />
  </g>
</svg>
